<?xml version="1.0" encoding="UTF-8" standalone="no"?>
<!-- Created with Inkscape (http://www.inkscape.org/) -->

<svg xmlns="http://www.w3.org/2000/svg" viewBox="0 0 60 60">
  <g transform="translate(30.51531,13.904678)"/>
  <g style="fill:#fff" transform="matrix(2.1790934,0,0,2.1790934,64.216457,-71.535551)">
    <path d="m-16.328125,32.828125c-0.989583,0 -1.829427,0.351563 -2.519531,1.054687 -0.703126,0.703126 -1.054688,1.54948 -1.054688,2.539063 0,0.989583 0.351562,1.829427 1.054688,2.519531 0.703124,0.703125 1.542968,1.054688 2.519531,1.054688 0.976563,0 1.822917,-0.351563 2.539063,-1.054688 0.703125,-0.703125 1.054687,-1.542969 1.054687,-2.519531 0,-1.041667 -0.351562,-1.901042 -1.054687,-2.578125 -0.716146,-0.677083 -1.5625,-1.015625 -2.539063,-1.015625zm3.75,8.90625c-3.385417,1.601562 -6.386719,2.617187 -9.003906,3.046875l-0.527344,2.441406c0.46875,0.09115 0.9375,0.136719 1.40625,0.136719 0.625,0 1.210938,-0.110677 1.757813,-0.332031l0.07812,4.902344c0,2.560077 -0.06017,4.600591 -0.173828,6.162109 -1.058426,0.01423 -2.073458,0.0064 -2.970703,-0.03711 0,0 0.08655,1.464761 -0.488281,2.269531 5.978288,0.114967 10.215605,-0.03401 12.7832031,-0.378907 0,-0.881414 0.8125,-2.595703 0.8125,-2.595703 -0.8748788,0.131232 -2.0234991,0.255793 -3.2714841,0.369141 -0.140568,-2.181591 -0.242087,-3.848656 -0.265625,-4.519531l-0.136719,-3.4375c-0.01302,-0.208334 -0.01953,-0.481771 -0.01953,-0.820313 0,-0.755208 -0.0065,-1.347656 -0.01953,-1.777344 -0.01302,-0.15625 -0.01953,-0.332031 -0.01953,-0.527343l0.05859,-1.464844 0,-3.4375z" style="fill:#fff"/>
  </g>
</svg>
