<?xml version="1.0" encoding="UTF-8" standalone="no"?>
<!-- Created with Inkscape (http://www.inkscape.org/) -->

<svg
   xmlns:dc="http://purl.org/dc/elements/1.1/"
   xmlns:cc="http://creativecommons.org/ns#"
   xmlns:rdf="http://www.w3.org/1999/02/22-rdf-syntax-ns#"
   xmlns:svg="http://www.w3.org/2000/svg"
   xmlns="http://www.w3.org/2000/svg"
   xmlns:sodipodi="http://sodipodi.sourceforge.net/DTD/sodipodi-0.dtd"
   xmlns:inkscape="http://www.inkscape.org/namespaces/inkscape"
   width="50"
   height="50"
   viewBox="0 0 50 50"
   id="svg4134"
   version="1.1"
   inkscape:version="0.91 r13725"
   sodipodi:docname="add.svg">
  <metadata
     id="metadata4144">
    <rdf:RDF>
      <cc:Work
         rdf:about="">
        <dc:format>image/svg+xml</dc:format>
        <dc:type
           rdf:resource="http://purl.org/dc/dcmitype/StillImage" />
        <dc:title></dc:title>
      </cc:Work>
    </rdf:RDF>
  </metadata>
  <defs
     id="defs4142" />
  <sodipodi:namedview
     pagecolor="#ffffff"
     bordercolor="#666666"
     borderopacity="1"
     objecttolerance="10"
     gridtolerance="10"
     guidetolerance="10"
     inkscape:pageopacity="0"
     inkscape:pageshadow="2"
     inkscape:window-width="1366"
     inkscape:window-height="705"
     id="namedview4140"
     showgrid="false"
     inkscape:zoom="7.8064589"
     inkscape:cx="30.367505"
     inkscape:cy="23.800403"
     inkscape:window-x="-8"
     inkscape:window-y="-8"
     inkscape:window-maximized="1"
     inkscape:current-layer="svg4134" />
  <g
     transform="matrix(0.58823529,0.58823529,-0.58823529,0.58823529,614.62483,-594.03659)"
     id="g4136">
    <path
       style="fill:#445566"
       d="m 25,1036.3622 c 0,0 -14,16 -16,16 -2,0 -9,-7 -9,-9 0,-2 16,-16 16,-16 0,0 -16,-14 -16,-16 0,-2 7,-9 9,-9 2,0 16,16 16,16 0,0 14,-16 16,-16 2,0 9,7 9,9 0,2 -16,16 -16,16 0,0 16,14 16,16 0,2 -7,9 -9,9 -2,0 -16,-16 -16,-16 z"
       id="path4138"
       inkscape:connector-curvature="0" />
  </g>
</svg>
