<?xml version="1.0" encoding="UTF-8" standalone="no"?>
<!-- Created with Inkscape (http://www.inkscape.org/) -->

<svg xmlns="http://www.w3.org/2000/svg" viewBox="0 0 50 50">
  <g transform="matrix(0.58823529,0.58823529,-0.58823529,0.58823529,614.62483,-594.03659)">
    <path style="fill:#456" d="m25,1036.3622c0,0 -14,16 -16,16 -2,0 -9,-7 -9,-9 0,-2 16,-16 16,-16 0,0 -16,-14 -16,-16 0,-2 7,-9 9,-9 2,0 16,16 16,16 0,0 14,-16 16,-16 2,0 9,7 9,9 0,2 -16,16 -16,16 0,0 16,14 16,16 0,2 -7,9 -9,9 -2,0 -16,-16 -16,-16z"/>
  </g>
</svg>
