<?xml version="1.0" encoding="UTF-8" standalone="no"?>
<!-- Created with Inkscape (http://www.inkscape.org/) -->

<svg xmlns="http://www.w3.org/2000/svg" viewBox="0 0 60 60">
  <g transform="matrix(1.6759463,0,0,1.6759463,-7.8555787,-6.5042053)">
    <path d="m22.730469,7.5625c3.346354,0 6.628294,0.6510417 8.503294,1.953125 1.875,1.302083 2.8125,3.248698 2.8125,5.839844 0,1.315104 -0.351563,2.493489 -1.054688,3.535156 -0.690104,1.028646 -1.699218,1.803386 -3.027343,2.324219 1.705729,0.364583 2.98177,1.145833 3.828125,2.34375 0.859375,1.197917 1.289062,2.584635 1.289062,4.160156 0,2.721354 -0.898437,4.785156 -2.695312,6.191406C30.589232,35.303385 27.372396,36 24.078125,36l-13.984375,0 0,-4.737539 3.027344,-0.596678 0,-18.222541 -3.027344,-0.596678 0,-4.284064 3.027344,0zm-3.533326,16.829215 0,6.274068 4.667885,-0c1.341945,-0 2.365755,-0.366674 3.071433,-0.746864 0.705678,-0.387793 1.058516,-1.487816 1.058516,-2.240592 0,-0.813606 -0.300781,-2.008963 -0.902342,-2.434778 -0.601561,-0.433415 -1.546561,-0.851424 -2.845848,-0.851424zm0,-6.488871 3.525255,0c1.309869,0 2.316596,-0.22687 3.021647,-0.680612 0.705052,-0.453741 1.057577,-1.115446 1.057577,-1.985116 0,-0.954747 -0.358122,-1.658991 -1.074364,-2.112732 -0.705051,-0.453742 -1.762627,-0.680612 -3.172729,-0.680612l-3.357386,-0z" style="fill:#fff"/>
  </g>
</svg>
