<?xml version="1.0" encoding="UTF-8" standalone="no"?>
<!-- Created with Inkscape (http://www.inkscape.org/) -->

<svg xmlns="http://www.w3.org/2000/svg" viewBox="0 0 100 100">
  <g transform="translate(0,-952.36216)">
    <path style="fill:#456" d="m45.457302,1023.3699c-1.420406,0.1321 -2.767059,-0.8604 -3.938326,-1.6747 -10.309152,-7.1676 -17.540716,-17.9825 -25.889803,-27.36038 -0.814037,-0.91434 -1.186256,-2.46041 -2.357714,-2.81591 -0.917063,-0.2783 -1.901581,0.37984 -2.759534,0.80689 -1.7135476,0.85293 -3.2206828,2.10747 -4.6084754,3.42572 -1.4243642,1.35303 -2.721537,2.87189 -3.7543255,4.54308 -0.8375513,1.3552 -1.97068346,2.7782 -1.93356467,4.3709 0.0383826,1.6469 1.28347197,3.058 2.20778107,4.4216 1.6941153,2.4994 3.9411735,4.5793 6.0289634,6.7605 10.6330731,11.1094 20.3656471,23.4947 33.0534511,32.1837 1.194994,0.8184 2.503307,1.8257 3.951547,1.807 1.637728,-0.021 3.152005,-1.1145 4.414255,-2.1582 20.771807,-17.1754 38.608778,-39.6158 48.529546,-64.67654 1.480872,-3.74082 1.746257,-7.99529 1.326913,-11.99665 -0.409597,-3.90832 -1.667931,-7.82923 -3.697281,-11.19442 -1.013178,-1.6801 -2.123303,-4.12314 -4.081745,-4.24065 -2,-0.12 -4.074686,1.88382 -4.656201,3.80115 -1.567059,5.16679 -3.167198,8.81581 -5.360863,12.93571 -9.014672,16.93036 -18.256898,34.3767 -31.806932,47.9524 -1.320618,1.3231 -2.806325,2.9356 -4.667692,3.1088z"/>
  </g>
</svg>
