<?xml version="1.0" encoding="UTF-8" standalone="no"?>
<!-- Created with Inkscape (http://www.inkscape.org/) -->

<svg xmlns="http://www.w3.org/2000/svg" viewBox="0 0 60 60">
	<path style="fill:#456" d="m5.6321 22.404v-3.658h8.8119l.291 2.619q.998-1.455 2.39-2.245t3.242-.79q4.178 0 6.484 3.263 2.307 3.263 2.307 8.584v.436q0 4.988-2.307 8.022-2.306 3.035-6.442 3.035-1.767 0-3.138-.645-1.372-.665-2.349-1.933v6.506l2.93.623v3.658h-11.908v-3.658l2.9304-.623v-22.571l-3.2422-.623zm17.458 7.773q0-3.18-1.06-5.154-1.06-1.975-3.242-1.975-1.372 0-2.349.561-.956.561-1.517 1.601v9.851q.561.956 1.517 1.454.977.499 2.39.499 2.203 0 3.222-1.725 1.039-1.725 1.039-4.676v-.436z"/>
	<path style="fill:#456" d="m30.883 37.596 2.099-.332 6.11-7.399-5.902-7.108-2.099-.353v-3.658h10.121v3.512l-2.057.25 3.408 4.323 3.346-4.323-2.099-.25v-3.512h10.163v3.658l-2.037.353-5.777 7.108 6.089 7.399 2.12.332v3.637h-10.288v-3.491l2.058-.25-3.492-4.53-3.554 4.551 1.809.229v3.491h-10.018v-3.637z"/>
</svg>
