<?xml version="1.0" encoding="UTF-8" standalone="no"?>
<!-- Created with Inkscape (http://www.inkscape.org/) -->

<svg xmlns="http://www.w3.org/2000/svg" viewBox="0 0 60 60">
	<path style="fill:#456" d="m10.08 22.404v-3.658h8.812l.291 2.619q.997-1.455 2.39-2.245 1.392-.79 3.242-.79 4.177 0 6.484 3.263t2.307 8.584v.436q0 4.988-2.307 8.022-2.307 3.035-6.443 3.035-1.766 0-3.138-.645-1.372-.665-2.348-1.933v6.506l2.93.623v3.658h-11.909v-3.658l2.931-.623v-22.571l-3.242-.623zm17.457 7.773q0-3.18-1.06-5.154-1.06-1.975-3.242-1.975-1.371 0-2.348.561-.956.561-1.517 1.601v9.851q.561.956 1.517 1.454.977.499 2.39.499 2.203 0 3.221-1.725 1.039-1.725 1.039-4.676v-.436z"/>
	<path style="fill:#456" d="m45.265 13.239v5.507h3.949v4.261h-3.949v11.451q0 1.309.54 1.87.541.562 1.455.562.624 0 1.081-.04.478-.06 1.06-.187l.519 4.385q-1.018.312-2.016.457-.997.167-2.161.167-3.138 0-4.842-1.725-1.684-1.725-1.684-5.466v-11.472h-3.304v-4.261h3.304v-5.507h6.048z"/>
</svg>
