<?xml version="1.0" encoding="UTF-8" standalone="no"?>
<!-- Created with Inkscape (http://www.inkscape.org/) -->

<svg xmlns="http://www.w3.org/2000/svg" viewBox="0 0 60 60">
	<path style="fill:#456" d="m10.475 37.014q1.6211 0 2.5979-.93523.97679-.95601.97679-2.5355h5.4867l.06235.1247q.08313 3.4084-2.5563 5.7153-2.6394 2.2861-6.5674 2.2861-5.0294 0-7.752-3.1798-2.723-3.18-2.723-8.168v-.62348q0-4.9671 2.7849-8.1676 2.8057-3.2006 7.9806-3.2006 2.7225 0 4.884.81053 2.1614.81053 3.5954 2.2861l.08313 6.0062h-4.9255l-.99758-3.5123q-.45722-.39487-1.1223-.64427-.66505-.27018-1.5171-.27018-2.5771 0-3.637 1.8705t-1.0599 4.8216v.62348q0 3.0135.97679 4.8632.97679 1.8289 3.4292 1.8289z"/>
	<path style="fill:#456" d="m21.656 22.404v-3.6578h8.8743l.24939 2.9719q1.0807-1.6211 2.7018-2.4939 1.6418-.89366 3.7825-.89366 2.1614 0 3.6993.95601t2.3277 2.8888q1.0391-1.8081 2.7018-2.8265 1.6626-1.0184 3.9072-1.0184 3.3253 0 5.2373 2.3069 1.9328 2.2861 1.9328 6.983v9.3523l2.9304.62348v3.637h-11.618v-3.637l2.6186-.62348v-9.3731q0-2.5563-.83131-3.5539-.83131-.99758-2.4732-.99758-1.2885 0-2.2445.58192-.93523.56114-1.4964 1.5795 0 .39487.02078.68583.02078.27018.02078.56114v10.516l2.4524.62348v3.637h-10.953v-3.637l2.4524-.62348v-9.3731q0-2.4939-.83131-3.5123-.83131-1.0391-2.4939-1.0391-1.2262 0-2.1614 0.478-.91444.45722-1.5171 1.3093v12.137l2.6186.62348v3.637h-11.597v-3.637l2.9304-.62348v-13.945l-3.2421-.62348z"/>
</svg>
