<?xml version="1.0" encoding="UTF-8" standalone="no"?>
<!-- Created with Inkscape (http://www.inkscape.org/) -->

<svg xmlns="http://www.w3.org/2000/svg" viewBox="0 0 60 60">
	<path style="fill:#456" d="m.41566 37.596 2.9303-.623v-23.88l-3.2421-.623v-3.6581h9.2899v12.802q1.0602-1.559 2.5982-2.411 1.538-.873 3.408-.873 3.533 0 5.528 2.349 2.016 2.328 2.016 7.212v9.082l2.91.623v3.637h-11.597v-3.637l2.619-.623v-9.124q0-2.619-.936-3.699-.914-1.102-2.743-1.102-1.268 0-2.224.457-.935.458-1.5792 1.289v12.179l2.6182.623v3.637h-11.596v-3.637z"/>
	<path style="fill:#456" d="m59.896 22.404-2.265.291-4.697 18.538h-5.071l-4.178-13.384h-.124l-4.178 13.384h-5.05l-4.717-18.538-2.266-.291v-3.658h10.184v3.658l-2.39.457 2.12 10.288h.124l4.198-14.403h4.074l4.24 14.444h.124l2.099-10.308-2.41-.478v-3.658h10.183v3.658z"/>
</svg>
