<?xml version="1.0" encoding="UTF-8" standalone="no"?>
<!-- Created with Inkscape (http://www.inkscape.org/) -->

<svg xmlns="http://www.w3.org/2000/svg" viewBox="0 0 60 60">
	<path style="fill:#456" d="m10.662 37.596 2.93-.623v-13.946l-3.242-.623v-3.658h9.311v18.227l2.909.623v3.637h-11.908v-3.637zm9-24.233h-6.069v-4.5511h6.069v4.5511z"/>
	<path style="fill:#456" d="m24.233 37.596 2.909-.623v-13.946l-3.221-.623v-3.658h8.874l.27 3.221q1.123-1.725 2.765-2.681 1.641-.956 3.678-.956 3.409 0 5.321 2.141t1.912 6.713v9.789l2.909.623v3.637h-11.597v-3.637l2.598-.623v-9.768q0-2.266-.914-3.201-.915-.956-2.764-.956-1.206 0-2.162.499-.956.478-1.6 1.372v12.054l2.452.623v3.637h-11.43v-3.637z"/>
</svg>
