<?xml version="1.0" encoding="UTF-8" standalone="no"?>
<!-- Created with Inkscape (http://www.inkscape.org/) -->

<svg xmlns="http://www.w3.org/2000/svg" viewBox="0 0 60 60">
  <path style="fill:#456" d="m30,33.093768c-2.179182,0 -4.030892,0.11 -5.567852,0C18.115178,32.641699 16.503781,30.989452 13.296437,27.525916 8.0970977,21.911268 1.0471621,11.935929 7.7285849,5.2545063Z"/>
  <path style="fill:#456" d="m37.412198,28.161 -7.412204,4.932769 -3.606054,6.933716c0,0 -6.435941,-3.797891 -9.996035,-3.764825 -3.640901,0.03382 -8.0811811,1.04297 -10.1504557,4.038868 -1.6114805,2.333104 -1.3513728,5.941803 -0.1413713,8.5062 1.2733902,2.698738 4.108245,4.850993 7.003314,5.574377 3.660596,0.914664 8.004579,0.05651 11.131355,-2.055321 3.911836,-2.642068 5.334719,-7.808878 7.586199,-11.957832 2.134328,-3.933071 5.585252,-12.207952 5.585252,-12.207952zM16.397905,40.873537c2.765813,-0.08128 6.782294,1.239354 7.129461,3.984494 0.402826,3.185269 -3.919408,5.224715 -7.129461,5.163314C13.42123,49.964411 9.192723,47.26079 9.5359621,44.303421 9.8307699,41.763344 13.84188,40.948649 16.397905,40.873537Z"/>
  <path d="m22.587941,28.161 7.412204,4.932769 3.606054,6.933716c0,0 6.435942,-3.797891 9.996035,-3.764825 3.640902,0.03382 8.081181,1.04297 10.150456,4.038868 1.611481,2.333104 1.351374,5.941803 0.141372,8.5062 -1.273391,2.698738 -4.108245,4.850993 -7.003315,5.574377 -3.660596,0.914664 -8.004579,0.05652 -11.131355,-2.055321C31.847556,49.684715 30.424673,44.517905 28.173193,40.368951 26.038865,36.43588 22.587941,28.161 22.587941,28.161Zm21.014293,12.712538c-2.765813,-0.08128 -6.782294,1.239354 -7.129461,3.984494 -0.402826,3.185269 3.919408,5.224715 7.129461,5.163314 2.976675,-0.05693 7.205182,-2.760555 6.861943,-5.717924 -0.294808,-2.540077 -4.305918,-3.354772 -6.861943,-3.429884z" style="fill:#456"/>
  <path d="m30,33.093876c2.179182,0 4.030892,0.11 5.567852,0 6.316964,-0.452069 7.928361,-2.104316 11.135705,-5.567852 5.19934,-5.614648 12.249275,-15.589987 5.567852,-22.271409z" style="fill:#456"/>
</svg>
