<?xml version="1.0" encoding="UTF-8" standalone="no"?>
<!-- Created with Inkscape (http://www.inkscape.org/) -->

<svg xmlns="http://www.w3.org/2000/svg" viewBox="0 0 60 60">
  <g style="stroke:none;stroke-width:1px" transform="translate(7.7,0)">
    <g style="opacity:0.5;stroke:none;stroke-width:1px">
      <path d="m16.625,17.34375 -12.9785156,37.089844 -3.04687502,0.439453 0,5.126953 14.53124962,0 0,-5.126953 -2.958984,-0.527344 1.875,-5.859375 13.828125,0 1.875,5.859375 -2.958984,0.527344 0,5.126953 11.984375,0 -15.470703,-25.785156 2.548828,7.972656 -9.785157,0 4.804688,-15.029297 0.175781,0 0.189453,0.591797 7.763672,0 -3.617187,-10.40625z" transform="translate(-7.7,0)"/>
    </g>
    <path d="m33.7,60 -18,-30 12,0 0,-30 12,0 0,30 12,0z"/>
  </g>
</svg>
