<?xml version="1.0" encoding="UTF-8" standalone="no"?>
<!-- Created with Inkscape (http://www.inkscape.org/) -->

<svg xmlns="http://www.w3.org/2000/svg" width="60" height="60" viewBox="0 0 60 60">
  <g transform="translate(0,-992.36216)">
    <rect style="fill:#456" width="60" height="5" x="0" y="1001.3622" ry="0"/>
    <path style="fill:#456" d="m18,1001.3622c-0.240704,-0.5243 -0.298994,-1.1298 -0.165198,-1.69093 0.133797,-0.56116 0.457691,-1.07206 0.895654,-1.44756 0.437962,-0.3755 0.982919,-0.61393 1.547013,-0.73479 0.564094,-0.12086 1.145635,-0.12676 1.722531,-0.12676l16,0c0.576896,0 1.158437,0.006 1.722531,0.12676 0.564094,0.12086 1.109051,0.35929 1.547013,0.73479 0.437963,0.3755 0.761857,0.8864 0.895654,1.44756 0.133796,0.56113 0.07551,1.16663 -0.165198,1.69093l-24,0z"/>
    <path style="fill:#456" d="m20.6,1010.3622 -2.4,0c-0.4432,0 -0.8,0.446 -0.8,1l 0,34c0,0.554 0.3568,1 0.8,1l2.4,0c0.4432,0 0.8,-0.446 0.8,-1l0,-34c0,-0.554 -0.3568,-1 -0.8,-1zm10.6,0 -2.4,0c-0.4432,0 -0.8,0.446 -0.8,1l0,34c0,0.554 0.3568,1 0.8,1l2.4,0c0.4432,0 0.8,-0.446 0.8,-1l0,-34c0,-0.554 -0.3568,-1 -0.8,-1zm10.6,0 -2.4,0c-0.4432,0 -0.8,0.446 -0.8,1l0,34c0,0.554 0.3568,1 0.8,1l2.4,0c0.4432,0 0.8,-0.446 0.8,-1l0,-34c0,-0.554 -0.3568,-1 -0.8,-1zm-26.8,40c-2.357023,0 -5,-2.643 -5,-5 0,-10 0,-38 0,-38l40,0c0,0 0,29 0,38 0,2.357 -2.642977,5 -5,5 -10,0 -20,0 -30,0 z"/>
  </g>
</svg>
