<?xml version="1.0" encoding="UTF-8" standalone="no"?>
<!-- Created with Inkscape (http://www.inkscape.org/) -->

<svg xmlns="http://www.w3.org/2000/svg" viewBox="0 0 60 60">
  <g style="fill:#456;stroke:none;stroke-width:1px">
    <path d="m22.382812,6.2512207 0,16.0034183q2.34375,-1.391602 4.724122,-2.050782 2.416992,-0.6958 4.870605,-0.6958 3.881836,0 6.921387,1.318359 3.039551,1.318359 5.01709,4.174805 2.01416,2.819824 2.01416,7.141113l0,14.099121q2.856445,0 3.735351,0.549316 1.757813,1.135254 1.757813,3.222657 0,1.647949 -1.135254,2.709961 -1.135254,1.02539 -3.845215,1.02539l-8.569336,0q-2.67334,0 -3.845215,-1.02539 -1.135254,-1.062012 -1.135254,-2.746582 0,-2.050782 1.757813,-3.186036 0.915527,-0.585937 3.735351,-0.549316l0,-13.586426q0,-2.893066 -1.318359,-4.064941 -1.721191,-1.574707 -5.090332,-1.574707 -2.490234,0 -4.431152,0.988769 -1.904297,0.952149 -5.163575,4.174805l0,14.0625q2.893067,0 3.735352,0.549316 1.794434,1.135254 1.794434,3.222657 0,1.647949 -1.171875,2.709961 -1.135254,1.02539 -3.845215,1.02539l-8.532715,0q-2.709961,0 -3.881836,-1.02539 -1.1352539,-1.062012 -1.1352539,-2.746582 0,-2.050782 1.7944339,-3.186036 0.878906,-0.585937 3.735351,-0.549316l0,-32.48291 -1.281738,0q-2.709961,0 -3.8818359,-1.025391 -1.1352539,-1.062011 -1.1352539,-2.7465817 0,-1.6479493 1.1352539,-2.6733399Q10.883789,6.2512207 13.59375,6.2512207l8.789062,0z" style="fill:#456"/>
  </g>
</svg>
