<?xml version="1.0" encoding="UTF-8" standalone="no"?>
<!-- Created with Inkscape (http://www.inkscape.org/) -->

<svg xmlns="http://www.w3.org/2000/svg" xmlns:xlink="http://www.w3.org/1999/xlink" viewBox="0 0 60 60">
  <defs>
    <linearGradient id="linearGradient3364">
      <stop style="stop-color:#445566;stop-opacity:1;" offset="0" />
      <stop style="stop-color:#00acc1;stop-opacity:1" offset="1" />
    </linearGradient>
    <linearGradient xlink:href="#linearGradient3364" x1="14" y1="1038.3622" x2="8" y2="1044.3622" gradientUnits="userSpaceOnUse" gradientTransform="matrix(1.2973407,0.28280278,0.28280278,1.2973407,-296.04439,-317.69138)" />
    <linearGradient xlink:href="#linearGradient3364" id="linearGradient4179" gradientUnits="userSpaceOnUse" x1="14" y1="1038.3622" x2="8" y2="1044.3622" gradientTransform="matrix(2.7329355,0,0,2.7329355,-14.784621,-1811.5256)" />
  </defs>
  <g transform="translate(0,-992.3622)">
    <path style="fill:#456" d="m21.857266,1027.29c-0.725964,-0.7259 -1.91516,-1.8908 -1.62403,-2.5084 3.682699,-7.8154 8.155682,-12.4445 13.411815,-17.5446 5.717291,-5.5473 11.693228,-11.1034 19.560052,-14.04978 0.920752,-0.34482 2.119747,-1.41806 3.146511,-0.39131 1.026773,1.02674 -0.04655,2.22574 -0.391383,3.14644 -2.946281,7.86665 -8.502412,13.84285 -14.049782,19.56005 -5.10002,5.256 -9.729195,9.7291 -17.544555,13.4118 -0.617517,0.291 -1.782576,-0.8982 -2.508628,-1.6242z"/>
    <path style="fill:url(#linearGradient4179)" d="m20.743539,1020.7854c3.712079,1.0761 7.310803,4.4371 8.198807,8.1987 0.661898,2.8038 -0.695889,6.1619 -2.732937,8.199 -2.037005,2.037 -5.411825,2.0038 -8.198805,2.7329 -1.458387,0.3815 -3.013337,0.37 -4.44102,0.854 -1.3263,0.4495 -2.767522,0.8884 -3.7577851,1.8787 -1.26527,1.2651 -1.969923,3.0646 -2.40063,4.8012 -0.3942431,1.5897 -0.1107685,4.9123 -0.1107685,4.9123 0,0 -2.3790301,-2.6218 -2.9544728,-4.2477 -1.047518,-2.9597 -1.0977646,-6.2818 -0.6832338,-9.3939 0.454124,-3.4094 1.6347772,-6.7943 3.4161695,-9.7365 1.5334693,-2.5327 3.4945977,-5.0189 6.0636997,-6.4906 2.253311,-1.2908 5.106829,-2.4312 7.600976,-1.7081z"/>
  </g>
</svg>
