<?xml version="1.0" encoding="UTF-8" standalone="no"?>
<!-- Created with Inkscape (http://www.inkscape.org/) -->

<svg xmlns="http://www.w3.org/2000/svg" viewBox="0 0 60 60">
  <g style="fill:#456;stroke:none;stroke-width:1px" transform="translate(0,-7.232666)">
    <path d="m38.239746,29.285889q-1.831055,-1.135254 -3.845215,-1.684571 -2.01416,-0.585937 -4.211426,-0.585937 -4.35791,0 -6.921386,1.428223 -1.135254,0.622558 -1.135254,1.35498 0,0.842285 1.538086,1.647949 1.171875,0.585938 5.236816,1.135254 7.470703,1.025391 10.400391,2.050781 3.845215,1.354981 5.932617,4.028321 2.087402,2.67334 2.087402,5.639648 0,4.02832 -3.552246,6.738281 -5.090332,3.918457 -13.220215,3.918457 -3.259277,0 -6.04248,-0.585937 -2.746582,-0.549317 -5.053711,-1.647949 -0.549316,0.476074 -1.171875,0.732422 -0.622559,0.256347 -1.281738,0.256347 -1.757813,0 -2.819824,-1.135254 -1.025391,-1.171875 -1.025391,-3.881836l0,-2.526855q0,-2.709961 1.025391,-3.845215 1.062011,-1.171875 2.746582,-1.171875 1.35498,0 2.270507,0.769043 0.915528,0.732422 1.428223,2.563477 1.721191,1.464843 4.138184,2.233886 2.416992,0.732422 5.566406,0.732422 5.163574,0 8.020019,-1.611328 1.354981,-0.805664 1.354981,-1.68457 0,-1.464844 -1.940918,-2.416992 -1.940918,-0.952149 -8.02002,-1.611329 -9.04541,-0.952148 -12.084961,-3.662109 -3.03955,-2.67334 -3.03955,-6.591797 0,-4.02832 3.405761,-6.70166 4.614258,-3.662109 12.084961,-3.662109 2.6,0 4.980469,0.512695 2.416992,0.476074 4.614258,1.501465 0.695801,-0.512696 1.281738,-0.769043 0.622559,-0.256348 1.135254,-0.256348 1.538086,0 2.563477,1.171875 1.02539,1.135254 1.02539,3.845215l0,1.831055q0,2.453613 -0.585937,3.332519 -1.171875,1.684571 -3.186035,1.684571 -1.354981,0 -2.380372,-0.842286 -1.02539,-0.842285 -1.318359,-2.233886z" style="fill:#456"/>
  </g>
</svg>
