<?xml version="1.0" encoding="UTF-8" standalone="no"?>
<!-- Created with Inkscape (http://www.inkscape.org/) -->

<svg xmlns="http://www.w3.org/2000/svg" viewBox="0 0 60 60">
  <path d="m43.693569,26.915186 -1.12859,6.320109 9.141587,0 0,9.555402 -10.909714,0L38.012996,57.5l-10.08208,0 2.746238,-14.709303 -6.320109,0L21.686046,57.5l-10.044459,0 2.708618,-14.709303 -8.4644321,0 0,-9.555402 10.3077971,0 1.166211,-6.320109 -8.9534884,0 0,-9.781122 10.7968534,0L21.911765,2.5l10.082079,0 -2.783859,14.634064 6.244871,0L38.163474,2.5l10.08208,0 -2.74624,14.634064 8.614913,0 0,9.781122 -10.420658,0zm-17.455539,6.320109 6.20725,0 1.166209,-6.320109 -6.244869,0 -1.12859,6.320109z" style="fill:#00acc1"/>
  <path style="fill:#456" d="M0,60 5.1429443,42.857 48,0 60,12 17.143132,54.857Z"/>
</svg>
