<?xml version="1.0" encoding="UTF-8" standalone="no"?>
<!-- Created with Inkscape (http://www.inkscape.org/) -->

<svg xmlns="http://www.w3.org/2000/svg" viewBox="0 0 60 60">
  <g transform="translate(0,-992.36216)">
    <g transform="matrix(1.1662823,0,0,1.1662823,-5.6741321,-174.40272)">
      <path d="m23.414063,1026.3231 -4.039063,-12.0352 -4.203125,12.0313 8.242188,0 1.085941,3.1992 -11.136719,0.4649 0.734375,-0.4649 -1.557559,4.444 3.762029,0.7679 -0.0053,2.3936 -11.0039062,0 0.00391,-2.4219 3.265625,-0.75 0,0 9.1406252,-24.6367 4,-0.1875 8.879243,24.8457 3.320088,0.7568 -0.0055,2.3975 -11.606495,-0.01 0.0055,-2.4085 3.704039,-0.7417 -1.5,-4.4492" style="fill:#abc;stroke:#abc;stroke-width:1px"/>
      <path d="m48.277344,1027.9247 -3.140631,0.01c0,0 -0.897498,0.01 -1.339844,0.074 -0.798569,0.1198 -1.649655,0.1828 -2.351562,0.582 -0.509008,0.2895 -0.96151,0.7319 -1.234375,1.25 -0.274636,0.5215 -0.318981,1.5215 -0.144532,2.3828 0.134219,0.6627 0.523808,1.352 1.101563,1.7032 0.780191,0.4743 1.847172,0.5072 2.726562,0.2617 0.947191,-0.2645 1.740567,-0.714 2.40625,-1.1289 0.782991,-0.488 1.980469,-1.9336 1.980469,-1.9336l-0.0039,-3.1992 0.0039,-2.5625c0,0 0.0084,-2.1902 -0.0039,-3.2852 -0.0062,-0.5515 -0.168554,-1.7206 -0.683594,-2.3555 -0.496499,-0.6121 -1.301709,-1.0349 -2.085937,-1.1132 -0.962221,-0.096 -1.988762,-0.095 -2.972657,0.023 -0.713121,0.085 -2.097656,0.4922 -2.097656,0.4922l-0.554687,3.0117 -2.601563,-0.012 -0.199225,-5.0032c3.049398,-1.149 4.917976,-1.4386 7.546875,-1.5899 2.145739,-0.1235 4.217351,0.4738 5.167969,1.0352 1.899146,1.1217 2.176878,2.5269 2.351563,3.4726 0.152229,0.8241 0.136718,1.8516 0.136718,1.8516l0,12.0313 3.199219,0.8046 0,2.1993 -6.210937,0.207 -0.828125,-2.8125c-0.6875,0.6641 -1.22897,1.1976 -2.347657,1.9336 -0.959179,0.6311 -2.079213,1.086 -3.21875,1.2265 -1.266304,0.1562 -2.610797,0.01 -3.800781,-0.4531 -0.738328,-0.2856 -1.445232,-0.7559 -1.933594,-1.3789 -0.674217,-0.8602 -0.996567,-1.6544 -1.210937,-3.0469 -0.151736,-0.9856 -0.03124,-2.2822 0.210937,-2.9843 0.314077,-0.9105 0.707971,-1.6416 1.59375,-2.4102 0.500699,-0.4345 1.470364,-1.0245 3.101563,-1.4336 0.93395,-0.2342 1.898938,-0.3416 2.859375,-0.4101 1.523471,-0.1087 4.582031,-0.047 4.582031,-0.047" style="fill:#abc;stroke:#abc;stroke-width:1px"/>
    </g>
  </g>
</svg>
