<?xml version="1.0" encoding="UTF-8" standalone="no"?>
<!-- Created with Inkscape (http://www.inkscape.org/) -->

<svg xmlns="http://www.w3.org/2000/svg" viewBox="0 0 60 60">
  <path d="M29.997237,0.74047703C13.431351,0.74047703 0,14.171829 0,30.741398c0,13.254551 8.595107,24.49799 20.516283,28.466804 1.500967,0.27441 2.047945,-0.651954 2.047945,-1.447558 0,-0.710888 -0.02578,-2.598607 -0.04052,-5.101446 -8.34464,1.81221 -10.105283,-4.022223 -10.105283,-4.022223 -1.364683,-3.466036 -3.331594,-4.388717 -3.331594,-4.388717 -2.72384,-1.860094 0.206268,-1.82326 0.206268,-1.82326 3.011142,0.211793 4.594984,3.092176 4.594984,3.092176 2.675957,4.583934 7.022315,3.259768 8.731392,2.491789 0.272568,-1.937444 1.046072,-3.259768 1.904294,-4.009331 -6.661346,-0.756929 -13.665245,-3.331594 -13.665245,-14.827343 0,-3.274502 1.169465,-5.9523 3.088493,-8.049971 -0.309402,-0.758771 -1.338899,-3.808588 0.292827,-7.93947 0,0 2.519414,-0.806655 8.250713,3.075601 2.392339,-0.666687 4.959637,-0.998189 7.51036,-1.009239 2.547039,0.01105 5.114337,0.342552 7.510359,1.009239 5.727616,-3.882256 8.241506,-3.075601 8.241506,-3.075601 1.637251,4.130882 0.607753,7.180699 0.298351,7.93947 1.922711,2.097671 3.084809,4.775469 3.084809,8.049971 0,11.525216 -7.014948,14.061205 -13.698394,14.803401 1.077381,0.926364 2.036895,2.756991 2.036895,5.55634 0,4.009331 -0.03683,7.245158 -0.03683,8.228614 0,0.802971 0.539612,1.736701 2.062679,1.443874C51.412259,55.228338 60,43.992265 60,30.741398 60,14.171829 46.566807,0.74047703 29.997237,0.74047703" style="fill:#fff;fill-rule:evenodd;stroke:none"/>
</svg>
