<?xml version="1.0" encoding="UTF-8" standalone="no"?>
<!-- Created with Inkscape (http://www.inkscape.org/) -->

<svg xmlns="http://www.w3.org/2000/svg" width="1002" height="100" viewBox="0 0 1002 100">
  <g transform="translate(0,-952.3622)">
    <path style="fill:#000" d="m0,952.3622 0,100 2,0 0,-98 98,0 0,-2z"/>
    <path d="m100,952.3622 0,100 2,0 0,-98 98,0 0,-2z" style="fill:#000"/>
    <path style="fill:#000" d="m200,952.3622 0,100 2,0 0,-98 98,0 0,-2z"/>
    <path d="m300,952.3622 0,100 2,0 0,-98 98,0 0,-2z" style="fill:#000"/>
    <path style="fill:#000" d="m400,952.3622 0,100 2,0 0,-98 98,0 0,-2z"/>
    <path d="m500,952.3622 0,100 2,0 0,-98 98,0 0,-2z" style="fill:#000"/>
    <path style="fill:#000" d="m600,952.3622 0,100 2,0 0,-98 98,0 0,-2z"/>
    <path d="m700,952.3622 0,100 2,0 0,-98 98,0 0,-2z" style="fill:#000"/>
    <path style="fill:#000" d="m800,952.3622 0,100 2,0 0,-98 98,0 0,-2z"/>
    <path d="m900,952.3622 0,100 2,0 0,-98 98,0 0,-2z" style="fill:#000"/>
    <path style="fill:#000" d="m1002,952.3622 -2,0 0,100 2,0z"/>
    <path style="fill:#000" d="m49.5,954.3622 1,0 0,98 -1,0z"/>
    <path style="fill:#000" d="m100,1002.8622 0,-1 -98,0 0,1z"/>
    <path d="m149.5,954.3622 1,0 0,98 -1,0z" style="fill:#000"/>
    <path d="m200,1002.8622 0,-1 -98,0 0,1z" style="fill:#000"/>
    <path style="fill:#000" d="m249.5,954.3622 1,0 0,98 -1,0z"/>
    <path style="fill:#000" d="m300,1002.8622 0,-1 -98,0 0,1z"/>
    <path d="m349.5,954.3622 1,0 0,98 -1,0z" style="fill:#000"/>
    <path d="m400,1002.8622 0,-1 -98,0 0,1z" style="fill:#000"/>
    <path style="fill:#000" d="m449.5,954.3622 1,0 0,98 -1,0z"/>
    <path style="fill:#000" d="m500,1002.8622 0,-1 -98,0 0,1z"/>
    <path d="m549.5,954.3622 1,0 0,98 -1,0z" style="fill:#000"/>
    <path d="m600,1002.8622 0,-1 -98,0 0,1z" style="fill:#000"/>
    <path style="fill:#000" d="m649.5,954.3622 1,0 0,98 -1,0z"/>
    <path style="fill:#000" d="m700,1002.8622 0,-1 -98,0 0,1z"/>
    <path d="m749.5,954.3622 1,0 0,98 -1,0z" style="fill:#000"/>
    <path d="m800,1002.8622 0,-1 -98,0 0,1z" style="fill:#000"/>
    <path style="fill:#000" d="m849.5,954.3622 1,0 0,98 -1,0z"/>
    <path style="fill:#000" d="m900,1002.8622 0,-1 -98,0 0,1z"/>
    <path d="m949.5,954.3622 1,0 0,98 -1,0z" style="fill:#000"/>
    <path d="m1000,1002.8622 0,-1 -98,0 0,1z" style="fill:#000"/>
    <path d="m100,977.8622 0,-1 -98,0 0,1z" style="fill:#000"/>
    <path style="fill:#000" d="m100,1027.8622 0,-1 -98,0 0,1z"/>
    <path d="m49.5,954.3622 1,0 0,98 -1,0z" style="fill:#000"/>
    <path style="fill:#000" d="m74.5,954.3622 1,0 0,98 -1,0z"/>
    <path d="m24.5,954.3622 1,0 0,98 -1,0z" style="fill:#000"/>
    <path d="m49.5,954.3622 1,0 0,98 -1,0z" style="fill:#000"/>
    <path d="m100,1002.8622 0,-1 -98,0 0,1z" style="fill:#000"/>
    <path style="fill:#000" d="m100,977.8622 0,-1 -98,0 0,1z"/>
    <path d="m100,1027.8622 0,-1 -98,0 0,1z" style="fill:#000"/>
    <path style="fill:#000" d="m49.5,954.3622 1,0 0,98 -1,0z"/>
    <path d="m74.5,954.3622 1,0 0,98 -1,0z" style="fill:#000"/>
    <path style="fill:#000" d="m24.5,954.3622 1,0 0,98 -1,0z"/>
    <path d="m200,977.8622 0,-1 -98,0 0,1z" style="fill:#000"/>
    <path style="fill:#000" d="m200,1027.8622 0,-1 -98,0 0,1z"/>
    <path style="fill:#000" d="m174.5,954.3622 1,0 0,98 -1,0z"/>
    <path d="m124.5,954.3622 1,0 0,98 -1,0z" style="fill:#000"/>
    <path style="fill:#000" d="m300,977.8622 0,-1 -98,0 0,1z"/>
    <path d="m300,1027.8622 0,-1 -98,0 0,1z" style="fill:#000"/>
    <path d="m274.5,954.3622 1,0 0,98 -1,0z" style="fill:#000"/>
    <path style="fill:#000" d="m224.5,954.3622 1,0 0,98 -1,0z"/>
    <path d="m400,977.8622 0,-1 -98,0 0,1z" style="fill:#000"/>
    <path style="fill:#000" d="m400,1027.8622 0,-1 -98,0 0,1z"/>
    <path style="fill:#000" d="m374.5,954.3622 1,0 0,98 -1,0z"/>
    <path d="m324.5,954.3622 1,0 0,98 -1,0z" style="fill:#000"/>
    <path style="fill:#000" d="m500,977.8622 0,-1 -98,0 0,1z"/>
    <path d="m500,1027.8622 0,-1 -98,0 0,1z" style="fill:#000"/>
    <path d="m474.5,954.3622 1,0 0,98 -1,0z" style="fill:#000"/>
    <path style="fill:#000" d="m424.5,954.3622 1,0 0,98 -1,0z"/>
    <path d="m600,977.8622 0,-1 -98,0 0,1z" style="fill:#000"/>
    <path style="fill:#000" d="m600,1027.8622 0,-1 -98,0 0,1z"/>
    <path style="fill:#000" d="m574.5,954.3622 1,0 0,98 -1,0z"/>
    <path d="m524.5,954.3622 1,0 0,98 -1,0z" style="fill:#000"/>
    <path style="fill:#000" d="m700,977.8622 0,-1 -98,0 0,1z"/>
    <path d="m700,1027.8622 0,-1 -98,0 0,1z" style="fill:#000"/>
    <path d="m674.5,954.3622 1,0 0,98 -1,0z" style="fill:#000"/>
    <path style="fill:#000" d="m624.5,954.3622 1,0 0,98 -1,0z"/>
    <path d="m800,977.8622 0,-1 -98,0 0,1z" style="fill:#000"/>
    <path style="fill:#000" d="m800,1027.8622 0,-1 -98,0 0,1z"/>
    <path style="fill:#000" d="m774.5,954.3622 1,0 0,98 -1,0z"/>
    <path d="m724.5,954.3622 1,0 0,98 -1,0z" style="fill:#000"/>
    <path style="fill:#000" d="m900,977.8622 0,-1 -98,0 0,1z"/>
    <path d="m900,1027.8622 0,-1 -98,0 0,1z" style="fill:#000"/>
    <path d="m874.5,954.3622 1,0 0,98 -1,0z" style="fill:#000"/>
    <path style="fill:#000" d="m824.5,954.3622 1,0 0,98 -1,0z"/>
    <path d="m1000,977.8622 0,-1 -98,0 0,1z" style="fill:#000"/>
    <path style="fill:#000" d="m1000,1027.8622 0,-1 -98,0 0,1z"/>
    <path style="fill:#000" d="m974.5,954.3622 1,0 0,98 -1,0z"/>
    <path d="m924.5,954.3622 1,0 0,98 -1,0z" style="fill:#000"/>
  </g>
</svg>
