<?xml version="1.0" encoding="UTF-8" standalone="no"?>
<!-- Created with Inkscape (http://www.inkscape.org/) -->

<svg xmlns="http://www.w3.org/2000/svg" viewBox="0 0 51.25 51.25">
  <g transform="translate(0.1,18)"/>
  <path style="fill:#fff" d="m31.875004,45a6.25,6.25 0 0 1 -6.25,6.25 6.25,6.25 0 0 1 -6.25,-6.25 6.25,6.25 0 0 1 6.25,-6.25 6.25,6.25 0 0 1 6.25,6.25z"/>
  <path style="fill:#fff" d="m20.625,35 10,0 0,-5.660156c9.998423,-2.895032 10,-14.339844 10,-14.339844 0,0 0,-15 -15,-15 -15,0 -15,15 -15,15l10,0c0,0 0,-5 5,-5 5,0 5,5 5,5 0,0 0,5 -5,5.996381 -5,1.003613 -5,5.003613 -5,5.003613z"/>
</svg>
