<?xml version="1.0" encoding="UTF-8" standalone="no"?>
<!-- Created with Inkscape (http://www.inkscape.org/) -->

<svg xmlns="http://www.w3.org/2000/svg" viewBox="0 0 60 60">
  <g transform="translate(7.7,0)">
    <g transform="translate(9.5,15)">
      <path d="M-0.57336165,2.3437491 -13.553045,39.433582l-3.046875,0.440626 0,5.125779 14.5312462,0 0,-5.125779 -2.9578117,-0.527345 1.875,-5.859373 13.828121,0 1.875,5.859373 -2.9601557,0.527345 0,5.125779 6.3585917,0 0,-20.317964 -2.582812,-7.432028 -7.8914041,0 3.1781246,9.937497 -9.7851536,0 4.8046859,-15.028121 0.1757819,0 0.4968743,1.55625 4.9335922,-8.2218728 -1.0945305,-3.15 -8.75859135,0z" style="opacity:0.5"/>
    </g>
    <path d="M33.7,0 15.7,30l12,0 0,30 12,0 0,-30 12,0z"/>
  </g>
</svg>
