<?xml version="1.0" encoding="UTF-8" standalone="no"?>
<!-- Created with Inkscape (http://www.inkscape.org/) -->

<svg xmlns="http://www.w3.org/2000/svg" viewBox="0 0 60 31.787523">
  <g transform="scale(0.99459815,1.0054312)" style="stroke:none;stroke-width:1px">
    <path d="m9.270031,22.818358 -1.9037969,0L7.035895,21.079731 Q 6.7055558,20.871096 6.0709568,20.714619 5.4363579,20.558143 4.7235207,20.558143 q -1.0431763,0 -1.6169233,0.44335 -0.5650539,0.434656 -0.5650539,1.130107 0,0.643292 0.5911333,1.060563 0.5998264,0.408577 2.0602733,0.869314 2.0950458,0.58244 3.1729947,1.538685 1.0866421,0.956245 1.0866421,2.512316 0,1.625617 -1.2865842,2.564475 -1.2865842,0.938859 -3.3903232,0.938859 -1.5039125,0 -2.7209516,-0.478122 -1.20834596,-0.478123 -2.01680763,-1.321357l0,-2.642714 1.96464883,0 0.2694872,1.79948 q 0.382498,0.312952 1.0344832,0.521588 0.6606784,0.2 1.46914,0.2 1.0431764,0 1.5821508,-0.425964 0.5476676,-0.425963 0.5476676,-1.138801 0,-0.730223 -0.5215882,-1.173573 Q 5.8710147,26.512941 4.5757374,26.12175 2.3242151,25.469765 1.168028,24.574372 0.01184086,23.678979 0.01184086,22.122907 q 0,-1.538685 1.30397044,-2.512316 1.3039704,-0.982325 3.2773124,-1.008404 1.4604469,0 2.6600997,0.44335 1.1996528,0.44335 2.0168076,1.182266l0,2.590555z" style="fill:#00acc1"/>
    <path d="m14.277277,19.723602 0,2.303681 1.651696,0 0,1.782093 -1.651696,0 0,4.789918 q 0,0.547667 0.226022,0.782382 0.226021,0.234715 0.608519,0.234715 0.260795,0 0.452044,-0.01739 0.2,-0.02608 0.44335,-0.07824l0.217328,1.834252 q -0.425964,0.130397 -0.843234,0.191249 -0.417271,0.06954 -0.904086,0.06954 -1.312664,0 -2.025501,-0.72153 -0.704144,-0.721531 -0.704144,-2.286295l0,-4.798611 -1.382209,0 0,-1.782093 1.382209,0 0,-2.303681 2.529702,0z" style="fill:#00acc1"/>
    <path d="m23.752797,30.242296 q -0.452044,0.660679 -1.121415,1.017097 -0.660678,0.356419 -1.512606,0.356419 -1.486526,0 -2.32976,-0.947552 -0.843234,-0.956245 -0.843234,-2.964359l0,-3.885832 -1.034484,-0.260794 0,-1.53 1.034484,0 2.538395,0 0,5.694004 q 0,1.02579 0.339033,1.477833 0.347725,0.44335 1.02579,0.44335 0.599826,0 1.034483,-0.191249 0.44335,-0.2 0.72153,-0.565054l0,-5.068098 -1.112721,-0.260794 0,-1.53 1.112721,0 2.538396,0 0,7.62388 1.138801,0.260794 0,1.521299 -3.364244,0 -0.165169,-1.19096z" style="fill:#00acc1"/>
    <path d="m34.419275,30.285762 q -0.44335,0.651985 -1.05187,0.991018 -0.599826,0.339032 -1.373515,0.339032 -1.738628,0 -2.703566,-1.269198 -0.956245,-1.269198 -0.956245,-3.35555l0,-0.182556 q 0,-2.225443 0.964939,-3.590266 0.964938,-1.364822 2.712258,-1.364822 0.704144,0 1.269198,0.312953 0.565054,0.30426 0.991017,0.869314l0,-3.372937 -1.356129,-0.260794 0,-1.53 1.356129,0 2.538396,0 0,11.779199 1.217039,0.260794 0,1.521299 -3.416402,0 -0.191249,-1.147494zm-3.5468,-3.294698 q 0,1.234425 0.408578,1.947262 0.41727,0.704144 1.356129,0.704144 0.556361,0 0.964938,-0.226021 0.408577,-0.226022 0.669371,-0.651986l0,-3.990149 q -0.260794,-0.452043 -0.669371,-0.695451 -0.4,-0.252101 -0.947552,-0.252101 -0.930165,0 -1.356129,0.825848 -0.425964,0.825848 -0.425964,2.155898l0,0.182556z" style="fill:#00acc1"/>
    <path d="m38.75715,29.911957 1.225732,-0.260794 0,-5.833094 -1.356129,-0.260794 0,-1.53 3.894525,0 0,7.62388 1.217039,0.260794 0,1.521299 -4.981167,0 0,-1.521299zm3.764128,-10.136197 -2.538396,0 0,-1.903796 2.538396,0 0,1.903796z" style="fill:#00acc1"/>
    <path d="m44.572857,26.643338 q 0,-2.103739 1.173573,-3.442482 1.182267,-1.347436 3.259926,-1.347436 2.086353,0 3.259926,1.338743 1.182267,1.338743 1.182267,3.451175l0,0.182556 q 0,2.121125 -1.182267,3.459868 -1.173573,1.33005 -3.242539,1.33005 -2.095046,0 -3.277313,-1.33005 -1.173573,-1.338743 -1.173573,-3.459868l0,-0.182556zm2.538396,0.182556 q 0,1.286584 0.452043,2.068966 0.452043,0.773689 1.460447,0.773689 0.982324,0 1.434367,-0.782382 0.460736,-0.782382 0.460736,-2.060273l0,-0.182556 q 0,-1.251812 -0.460736,-2.042887 -0.460736,-0.791075 -1.451754,-0.791075 -0.991017,0 -1.44306,0.791075 -0.452043,0.791075 -0.452043,2.042887l0,0.182556z" style="fill:#00acc1"/>
  </g>
  <g transform="scale(0.96996899,1.0309608)">
    <path d="m7.8335143,1.5849729 0,-1.58497197612801 5.4303297,0 0,1.58497197612801 -1.404861,0.2701656 0,3.7823194 5.34928,0 0,-3.7823194 -1.404861,-0.2701656 0,-1.58497197612801 1.404861,0 2.620607,0 1.404862,0 0,1.58497197612801 -1.404862,0.2701656 0,9.4107705 1.404862,0.270166 0,1.575966 -5.43033,0 0,-1.575966 1.404861,-0.270166 0,-3.6022086 -5.34928,0 0,3.6022086 1.404861,0.270166 0,1.575966 -5.4303297,0 0,-1.575966 1.395856,-0.270166 0,-9.4107705 -1.395856,-0.2701656z" style="fill:#00acc1"/>
    <path d="m33.787429,0 0,3.49414267612801 -2.017237,0 -0.108066,-1.4679 -2.41348,0 0,9.2396655 1.404862,0.270166 0,1.575966 -5.439336,0 0,-1.575966 1.404862,-0.270166 0,-9.2396655 -2.404475,0 -0.108066,1.4679 -2.008232,0 0,-3.49414267612801 11.689168,0z" style="fill:#00acc1"/>
    <path d="m47.286707,3.4130939 -0.05403,-0.00901 -3.512154,9.7079531 -1.765082,0 -3.494143,-9.671931 -0.05403,0.00901 0.252155,5.7545288 0,2.0622642 1.404861,0.270166 0,1.575966 -5.43033,0 0,-1.575966 1.395856,-0.270166 0,-9.4107705 -1.395856,-0.2701656 0,-1.58497197612801 1.395856,0 3.431104,0L42.801957,9.6629264l0.05403,0 3.368066,-9.66292547612801 4.844971,0 0,1.58497197612801 -1.404862,0.2701656 0,9.4107705 1.404862,0.270166 0,1.575966 -5.43033,0 0,-1.575966 1.395856,-0.270166 0,-2.0622642 0.252154,-5.7905509z" style="fill:#00acc1"/>
    <path d="m51.996596,13.112041 0,-1.575966 1.395856,-0.270166 0,-9.4107705 -1.395856,-0.2701656 0,-1.58497197612801 1.395856,0 2.629613,0 1.404861,0 0,1.58497197612801 -1.404861,0.2701656 0,9.2396655 3.70127,0 0.126077,-1.6480101 2.008231,0 0,3.6652471 -9.861047,0z" style="fill:#00acc1"/>
  </g>
  <path style="fill:#456" d="M3.4920902,0 0,6.9841735 5.0641422,17.112446l47.9926208,0a0.35155669,0.35155669 0 0 1 0.315228,0.194459l3.668122,7.336243a0.35155669,0.35155669 0 0 1 0,0.31523l-3.4143,6.826554 2.882095,0 3.492084,-6.984169 -5.064136,-10.128272 -47.9926203,0A0.35155669,0.35155669 0 0 1 6.6280066,14.478031L2.9598852,7.1417884a0.35155669,0.35155669 0 0 1 0,-0.3152299L6.3741856,0l-2.8820954,0z"/>
</svg>
