<?xml version="1.0" encoding="UTF-8" standalone="no"?>
<!-- Created with Inkscape (http://www.inkscape.org/) -->

<svg xmlns="http://www.w3.org/2000/svg" viewBox="0 0 60 60">
  <g transform="matrix(0,-0.87591234,0.87591234,0,7.4452576,56.715326)">
    <g transform="matrix(1,0,0,1.0851062,0,-3.0212687)">
      <rect ry="2.4509802" y="12" x="7" height="46.07843" width="27" style="fill:#456"/>
      <rect y="16.60784" x="8.5" height="35.941181" width="24" style="fill:#00acc1"/>
      <g>
        <rect ry="0.5" y="54.16177" x="16.75" height="2.3039219" width="6.5" style="fill:#678"/>
        <path d="m11.062494,55.846736 0,0.689827 2.625,0 0,-1.75629 -0.75,0 0,-0.691177 -2.625,0 0,0.187643 0,1.57 0.75,0zm-0.375,-0.373936 0,-1.008417 1.875,0 0,1.008417zm0.75,0.373936 1.5,0 0,-0.691177 0.375,0 0,1.007067 -1.875,0z" style="fill:#678;stroke:none;stroke-width:0.5px"/>
        <path d="m27.578119,54.276958 -1.40625,0.777574 1.40625,0.777574 0,-0.518383 1.40625,0c0.281251,0 0.28125,0.259192 0.28125,0.259192 0,0 0,0.259191 -0.28125,0.259191l-1.125,0 0,0.518383 1.125,0c0.843751,0 0.84375,-0.777574 0.84375,-0.777574 0,0 0,-0.777574 -0.84375,-0.777574l-1.40625,0z" style="fill:#678"/>
      </g>
    </g>
    <path transform="matrix(.9,0,0,.9,2,3.5)" d="m31.25,34.675782c0,-1.25 -2,-3.5 -6,-3.5 -0.471405,0 -1,0.528595 -1,1l0,5c0,0.471405 0.528595,1 1,1 4,0 6,-2.25 6,-3.5zm-5.470703,-7.816406 -2.310547,0 -3.130859,3.132812C19.899054,29.950388 19.453525,29.924508 19,29.917968l0,-5.058594 -2.75,0 0,1.5 1.25,0 0,3.617187c-0.643981,0.04734 -1.264689,0.125435 -1.857422,0.240235l0.136719,-0.136719 -3.21875,-3.220703 -2.310547,0 0,1.5 1.689453,0 2.228516,2.228515c-2.633555,0.822147 -4.4170431,2.31267 -4.4179691,4.035157 -0,1.68223 1.6935981,3.147954 4.2246091,3.982422l-2.035156,2.035156 -1.689453,0 0,1.5 2.310547,0 3.105469,-3.105469c0.585817,0.112466 1.198334,0.189636 1.833984,0.23633l0,3.369141 -1.25,0 0,1.5 2.75,0 0,-4.810547c0.530589,-0.0081 1.050967,-0.03908 1.5625,-0.0957l2.90625,2.90625 2.310547,0 0,-1.5 -1.689453,0 -1.720703,-1.722656c0.126834,-0.03031 0.254566,-0.05405 0.380859,-0.08789 0.265138,-0.07104 0.5,-0.200903 0.5,-0.654297l0,-7c0,-0.453394 -0.207154,-0.681296 -0.5,-0.759766 -0.193194,-0.05177 -0.388066,-0.08937 -0.582031,-0.132812l1.921875,-1.923828 1.689453,0 0,-1.5z" style="fill:#ddd"/>
  </g>
  <g transform="matrix(0.87591234,0,0,0.87591234,-6.1313822,-0.65693354)">
    <g transform="matrix(1,0,0,1.0851062,0,-3.0212687)">
      <rect style="fill:#456" width="27" height="46.07843" x="7" y="12" ry="2.4509802"/>
      <rect style="fill:#00acc1" width="24" height="35.941181" x="8.5" y="16.60784"/>
      <ellipse ry="1.8431375" rx="2" cy="55.313725" cx="20" style="fill:#678"/>
    </g>
    <path style="fill:#ddd" d="m20.675782,23.75c-1.25,0 -3.5,2 -3.5,6 0,0.471405 0.528595,1 1,1l5,0c0.471405,0 1,-0.528595 1,-1 0,-4 -2.25,-6 -3.5,-6zm-7.816406,5.470703 0,2.310547 3.132812,3.130859c-0.0418,0.438837 -0.06768,0.884366 -0.07422,1.337891l-5.058594,0 0,2.75 1.5,0 0,-1.25 3.617187,0c0.04734,0.643981 0.125435,1.264689 0.240235,1.857422l-0.136719,-0.136719 -3.220703,3.21875 0,2.310547 1.5,0 0,-1.689453 2.228515,-2.228516c0.822147,2.633555 2.31267,4.417043 4.035157,4.417969 1.68223,0 3.147954,-1.693598 3.982422,-4.224609l2.035156,2.035156 0,1.689453 1.5,0 0,-2.310547 -3.105469,-3.105469C25.147621,38.748167 25.224791,38.13565 25.271485,37.5l3.369141,0 0,1.25 1.5,0 0,-2.75 -4.810547,0c-0.0081,-0.530589 -0.03908,-1.050967 -0.0957,-1.5625l2.90625,-2.90625 0,-2.310547 -1.5,0 0,1.689453 -1.722656,1.720703c-0.03031,-0.126834 -0.05405,-0.254566 -0.08789,-0.380859 -0.07104,-0.265138 -0.200903,-0.5 -0.654297,-0.5l-7,0c-0.453394,0 -0.681296,0.207154 -0.759766,0.5 -0.05177,0.193194 -0.08937,0.388066 -0.132812,0.582031l-1.923828,-1.921875 0,-1.689453 -1.5,0z"/>
  </g>
</svg>
