<?xml version="1.0" encoding="UTF-8" standalone="no"?>
<!-- Created with Inkscape (http://www.inkscape.org/) -->

<svg xmlns="http://www.w3.org/2000/svg" viewBox="0 0 60 60">
  <g transform="translate(0,-992.36216)">
    <path style="fill:#456" d="m38,1045.3622 -34,0 0,-2 34,0zm-8.281717,-6 -25.718283,0 0,-2 25.784515,0zm-0.132462,-6 -25.585821,0 0,-2 25.585821,0zm8.414179,-12 -34,0 0,-2 34,0zm0,-6 -34,0 0,-2 34,0zm0,-6 -34,0 0,-2 34,0zm0,-6 -34,0 0,-2 34,0zm-0.03349,16.9969 0.0121,9.2647 -9.267036,0 0,12.3496 9.262212,0 0,9.2622 12.349616,0 0,-9.2574 9.262213,0 0,-12.3569 -9.262213,0.017 0,-9.2791 -8.31559,-0zM0,992.36219l0,60 42,0 0,-2.9037 -1.786554,-0.018 -0.07417,-9.8345 -8.975608,-0.2195 -0.05286,-7.3933 9.400155,-0.1066 0.13113,-10.0965 1.35791,0.038 0,-21.0654 -8.4,-8.4zm56.662221,40.35221 0,6.1748 -9.262212,0 0,9.2574 -6.174808,0 0,-9.2622 -9.262212,0 0,-6.1748 9.267036,0 -0.0048,-9.2622 6.174808,0 0,9.2834zM38,1027.3622l-34,0 0,-2 34,0z"/>
  </g>
</svg>
