<svg xmlns="http://www.w3.org/2000/svg" viewBox="0 0 779.52757 779.52755">
	<path d="m88.252022,385.16553c24.416008,-2.73461 63.285668,-15.97227 63.603268,-57.45705 0.21025,-27.46164 -0.0346,-82.38732 -0.0346,-82.38732 -0.97664,-44.73015 47.13272,-39.39813 47.13272,-39.39813l0.0692,-61.32434c-82.03782,0.7813 -117.142442,16.83225 -118.919482,74.30742 -0.87643,28.34666 -0.069,85.08063 -0.069,85.08063 2.734597,22.2674 -14.126348,51.90659 -69.404206,50.34396l0,64.89691c55.277858,-1.56262 72.138803,28.07655 69.404206,50.34397 0,0 -0.80737,56.73395 0.069,85.08062 1.77704,57.47516 36.881662,73.52611 118.919482,74.30742l-0.0692,-61.32434c0,0 -48.10936,5.33203 -47.13272,-39.39813 0,0 0.24479,-54.92568 0.0346,-82.38731 -0.3176,-41.48478 -39.18726,-54.72246 -63.603268,-57.45704z" style="fill:#00acc1"/>
	<path d="m693.35673,381.83359c-24.41603,-2.73461 -63.28567,-15.97227 -63.60328,-57.45705 -0.21025,-27.46164 0.0346,-82.38732 0.0346,-82.38732 0.97665,-44.73015 -47.13273,-39.39813 -47.13273,-39.39813l-0.0692,-61.32434c82.03783,0.7813 117.14244,16.83225 118.91949,74.30742 0.87643,28.34666 0.0692,85.08063 0.0692,85.08063 -2.7346,22.2674 14.12636,51.90659 69.40424,50.34396l0,64.89691c-55.27788,-1.56262 -72.13884,28.07655 -69.40424,50.34397 0,0 0.80737,56.73395 -0.0692,85.08062 -1.77705,57.47516 -36.88166,73.52611 -118.91949,74.30742l0.0692,-61.32434c0,0 48.10938,5.33203 47.13273,-39.39813 0,0 -0.24479,-54.92568 -0.0346,-82.38731 0.31761,-41.48478 39.18725,-54.72246 63.60328,-57.45704z" style="fill:#00acc1"/>
	<path d="m195.32,139.61225 0,377.72821c1.77921,88.63 -50.33715,74.55887 -66.7811,73.1994l0,85.32817c150.05538,16.23406 176.20188,-80.46217 177.95693,-165.5813l-0.008,-370.67448z" style="fill:#456"/>
	<path d="m604.03627,262.6347c-9.4333,-5.92323 -63.00455,-27.14427 -96.26924,-26.38658 -46.47358,1.05854 -43.98272,24.21913 -43.98272,24.21913 -3.28599,20.98259 27.67498,34.29933 47.08029,42.93069 85.51177,38.03514 124.91096,61.99479 127.04699,134.60931 -1.53566,59.89054 -27.46407,89.16485 -73.41268,113.82262 -31.92013,17.12958 -91.94853,18.65254 -127.12456,15.39613 -29.7452,-2.75367 -69.61519,-14.32736 -86.28801,-24.19943l0.0388,-98.62043c125.4585,57.88007 170.16038,34.58198 175.75609,8.72575 13.21063,-61.04271 -175.34261,-41.34315 -172.74612,-189.09007 1.31627,-62.74245 48.05959,-89.7135 48.05959,-89.7135 29.47366,-18.30471 64.18798,-24.50366 88.38739,-26.05491 63.60106,-1.24099 108.74229,10.89749 147.21318,28.89194z" style="fill:#456"/>
	<rect style="fill:red" width="868.71075" height="70" x="-989.83661" y="-88.662819" transform="matrix(-0.76604444,-0.64278761,0.64278761,-0.76604444,0,0)"/>
</svg>
