<?xml version="1.0" encoding="UTF-8" standalone="no"?>
<!-- Created with Inkscape (http://www.inkscape.org/) -->

<svg xmlns="http://www.w3.org/2000/svg" viewBox="0 0 60 60">
  <path style="fill:#456" d="m5,29.5 0,25.5 50,0 0,-25.5 -11.640625,0 -0.07813,0.138672 -0.05859,-0.138672 -8.082031,0c-0.504004,1.423629 -0.94308,3.165365 -1.332031,5L50,34.5 50,50l-40,0 0,-15.5 9.691406,0c-0.47741,-1.584349 -0.717663,-3.288804 -0.763672,-5z"/>
  <path style="fill:#456" d="M55,5 30.111111,1.1111111 34,7C34,7 25.618127,14.763749 22.666667,20.666667 21,24 20.304044,30.568546 21.893568,34.776443 25,43 30,48 30,48c0,0 0.877896,-14.594514 4,-21 1.552489,-3.185174 7,-8 7,-8l2.555556,6.111111z"/>
</svg>
