<?xml version="1.0" encoding="UTF-8" standalone="no"?>
<!-- Created with Inkscape (http://www.inkscape.org/) -->

<svg xmlns="http://www.w3.org/2000/svg" viewBox="0 0 60 60">
  <rect style="fill:#456" width="42" height="28" x="17" y="23" ry="2.5"/>
  <g transform="matrix(1.1290233,0,0,1.1290233,-4.369123,7.560305)" style="fill:#fff;stroke:none;stroke-width:1px">
    <path style="fill:#aaa" d="m30.510596,34.129652 -8.483375,-7.149194 8.483375,-7.136607 1.963511,1.988684 -6.242958,5.12275 6.242958,5.185683 -1.963511,1.988684z"/>
    <path style="fill:#aaa" d="m34.830345,36.546281 -2.983026,0 8.785453,-20.491 2.995613,0 -8.79804,20.491z"/>
    <path style="fill:#aaa" d="m44.544092,19.843851 8.483375,7.136607 -8.483375,7.149194 -1.950924,-1.988684 6.230371,-5.135337 -6.230371,-5.173096 1.950924,-1.988684z"/>
  </g>
  <rect style="fill:#009cb1" width="42" height="28" x="1" y="10" ry="2.5"/>
  <g style="fill:#fff;stroke:none;stroke-width:1px" transform="matrix(1.1290233,0,0,1.1290233,-20.369123,-5.4396945)">
    <path d="m30.510596,34.129652 -8.483375,-7.149194 8.483375,-7.136607 1.963511,1.988684 -6.242958,5.12275 6.242958,5.185683 -1.963511,1.988684z" style="fill:#ddd"/>
    <path d="m34.830345,36.546281 -2.983026,0 8.785453,-20.491 2.995613,0 -8.79804,20.491z" style="fill:#ddd"/>
    <path d="m44.544092,19.843851 8.483375,7.136607 -8.483375,7.149194 -1.950924,-1.988684 6.230371,-5.135337 -6.230371,-5.173096 1.950924,-1.988684z" style="fill:#ddd"/>
  </g>
</svg>
