<?xml version="1.0" encoding="UTF-8" standalone="no"?>
<!-- Created with Inkscape (http://www.inkscape.org/) -->

<svg xmlns="http://www.w3.org/2000/svg" xmlns:xlink="http://www.w3.org/1999/xlink" viewBox="0 0 60 60">
  <defs>
    <linearGradient id="linearGradient5274">
      <stop style="stop-color:#abc" offset="0"/>
      <stop style="stop-color:#89f2ff" offset="1"/>
    </linearGradient>
    <linearGradient xlink:href="#linearGradient5274" id="linearGradient5280" x1="10" y1="15" x2="50" y2="15" gradientUnits="userSpaceOnUse" />
  </defs>
  <rect style="fill:#89f2ff" width="28" height="28" x="32" y="28.5" ry="3.75"/>
  <rect style="fill:#abc" width="28" height="28" x="0" y="28.5" ry="3.75"/>
  <path style="fill:url(#linearGradient5280)" d="m46,27.5 4,-12 -3,1C45.666667,11.833333 40,3.5 30,3.5 20,3.5 14.683719,8.6897455 12.333333,13.611111 9.9829468,18.532477 10,26.5 10,26.5l10,0c0,0 -0.459917,-6.13323 1.111111,-8.777778C22.682139,15.077674 24,12.5 30,12.5c6,0 8,6 8,6l-3,1z"/>
</svg>
