<?xml version="1.0" encoding="UTF-8" standalone="no"?>
<!-- Created with Inkscape (http://www.inkscape.org/) -->

<svg xmlns="http://www.w3.org/2000/svg" viewBox="0 0 60 60">
  <g style="stroke:none;stroke-width:1px" transform="matrix(1.5155402,0,0,1.5155402,-53.828317,19.743463)">
    <path d="m46.171875,-8.8085938 -2.753906,0 0,31.1523438 2.753906,0 0,4.21875 -8.457031,0 0,-39.589844 8.457031,0 0,4.2187502z" style="fill:#00acc1"/>
    <path style="fill:#00acc1" d="m53.554688,-2.5175781a0.72081609,0.72081609 0 0 0 -0.720704,0.7578125l0.292969,5.6367187 -4.746094,-1.9648437a0.72081609,0.72081609 0 0 0 -0.960937,0.4453125l-1.113281,3.4570312a0.72081609,0.72081609 0 0 0 0.482421,0.9121094l4.892579,1.4414063 -3.425782,4.4804692a0.72081609,0.72081609 0 0 0 0.160157,1.029296l2.96875,2.070313a0.72081609,0.72081609 0 0 0 1.02539,-0.214844l2.757813,-4.480469 2.808593,4.652344a0.72081609,0.72081609 0 0 0 1.041016,0.208984l2.949219,-2.148437A0.72081609,0.72081609 0 0 0 62.119141,12.75L58.841797,8.4082031 63.814453,6.9609375a0.72081609,0.72081609 0 0 0 0.486328,-0.90625l-1.09375,-3.515625a0.72081609,0.72081609 0 0 0 -0.96289,-0.4511719l-4.625,1.90625 0.326171,-5.75a0.72081609,0.72081609 0 0 0 -0.71875,-0.7617187l-3.671874,0z"/>
    <path d="m64.433594,-13.027344 8.476562,0 0,39.589844 -8.476562,0 0,-4.21875 2.792968,0 0,-31.1523438 -2.792968,0 0,-4.2187502z" style="fill:#00acc1"/>
  </g>
</svg>
