<?xml version="1.0" encoding="UTF-8" standalone="no"?>
<!-- Created with Inkscape (http://www.inkscape.org/) -->

<svg xmlns="http://www.w3.org/2000/svg" viewBox="0 0 60 60">
  <path style="fill:#00acc1" d="M26.137018,9.4808505A1.5929555,1.5929555 0 0 0 24.54431,11.155565l0.647442,12.456772 -10.488551,-4.342174a1.5929555,1.5929555 0 0 0 -2.123607,0.984112l-2.460278,7.639807a1.5929555,1.5929555 0 0 0 1.06612,2.0157l10.812273,3.185412 -7.57075,9.901539a1.5929555,1.5929555 0 0 0 0.353937,2.274677l6.560738,4.575254a1.5929555,1.5929555 0 0 0 2.266044,-0.474792l6.094583,-9.901537 6.206804,10.281369a1.5929555,1.5929555 0 0 0 2.300576,0.461841l6.517577,-4.747901a1.5929555,1.5929555 0 0 0 0.33667,-2.244464l-7.242711,-9.595083 10.989238,-3.198362a1.5929555,1.5929555 0 0 0 1.074752,-2.002751l-2.417114,-7.769296a1.5929555,1.5929555 0 0 0 -2.127924,-0.997061l-10.22094,4.212686 0.720815,-12.707117A1.5929555,1.5929555 0 0 0 34.251615,9.4808505l-8.114597,0z"/>
</svg>
