<?xml version="1.0" encoding="UTF-8" standalone="no"?>
<!-- Created with Inkscape (http://www.inkscape.org/) -->

<svg xmlns="http://www.w3.org/2000/svg" viewBox="0 0 60 60">
  <g style="stroke:none;stroke-width:1px" transform="matrix(1.0679477,0,0,1.0679477,-2.0353571,-2.0384297)">
    <path d="m6.4293529,29.979005 0,0.125967 9.2272051,4.261872 0,5.710485 -13.7927504,-7.704959 0,-4.765737 13.7927504,-7.683963 0,5.710486 -9.2272051,4.34585z" style="fill:#00acc1"/>
    <path d="m30.311677,14.71648 q 5.395417,0 8.418531,2.099385 3.023114,2.099385 3.023114,6.27716 0,2.120378 -1.133667,3.8 -1.112675,1.658514 -3.254046,2.498267 2.750193,0.587828 4.114793,2.519261 1.385595,1.931435 1.385595,4.471689 0,4.387715 -2.897152,6.65505 -2.897151,2.246342 -8.208593,2.246342l-15.031593,0 0,-3.673923 3.254045,-0.629816 0,-21.938568 -3.254045,-0.629815 0,-3.694918 3.254045,0 10.328973,0zm-4.19877,17.047003 0,8.817415 5.647345,0 q 2.435285,0 3.71591,-1.049692 1.280626,-1.070686 1.280626,-3.149078 0,-2.24634 -1.091681,-3.421995 -1.09168,-1.19665 -3.44299,-1.19665l-6.10921,0zm0,-4.240757 4.408708,0 q 2.45628,0 3.778893,-1.007704 1.322611,-1.007705 1.322611,-2.939138 0,-2.120378 -1.343605,-3.128083 -1.322613,-1.007705 -3.967837,-1.007705l-4.19877,0 0,8.08263z" style="fill:#00acc1"/>
    <path d="m53.516791,30.020996 0,-0.125968 -9.263789,-4.324854 0,-5.647503 13.792753,7.683963 0,4.765738 -13.792753,7.704958 0,-5.668497 9.263789,-4.387837z" style="fill:#00acc1"/>
  </g>
</svg>
