<?xml version="1.0" encoding="UTF-8" standalone="no"?>
<!-- Created with Inkscape (http://www.inkscape.org/) -->

<svg xmlns="http://www.w3.org/2000/svg" viewBox="0 0 60 60">
  <path d="m8.5978519,41.5464 2.1538261,-0.299143 10.150901,-26.224823 3.370338,0 9.971416,26.224823 2.133883,0.299143 0,2.512796 -8.336104,0 0,-2.512796 2.193712,-0.378914 -1.914512,-5.344679 -11.626671,0 -1.97434,5.344679 2.193712,0.378914 0,2.512796 -8.3161611,0 0,-2.512796zm9.3133021,-9.01416 9.213588,0 -4.50708,-12.46427 -0.119657,0 -4.586851,12.46427z"/>
  <path d="m51.402148,45.746361q0,3.033304 -1.464801,4.9Q48.485509,52.5 45.931829,52.5q-1.374061,0 -2.385162,-0.518514 -1.011102,-0.531476 -1.685169,-1.55554l-0.233332,1.801834 -2.203682,0 0,-18.212789 -2.112943,-0.36296 0,-1.64628 4.666622,0 0,7.85548q0.661105,-0.933324 1.633318,-1.425912 0.985176,-0.492588 2.294423,-0.492588 2.592567,0 4.044405,2.074054 1.451839,2.074055 1.451839,5.457356l0,0.27222zm-2.566643,-0.27222q0,-2.424051 -0.881473,-3.940703 -0.881473,-1.516653 -2.69627,-1.516653 -1.179619,0 -1.996278,0.570365 -0.803696,0.570365 -1.283321,1.529615l0,6.196238q0.479625,0.972213 1.296284,1.542578 0.829622,0.570365 2.00924,0.570365 1.801835,0 2.670345,-1.283321 0.881473,-1.283322 0.881473,-3.396264l0,-0.27222z"/>
</svg>
