<?xml version="1.0" encoding="UTF-8" standalone="no"?>
<!-- Created with Inkscape (http://www.inkscape.org/) -->

<svg xmlns="http://www.w3.org/2000/svg" viewBox="0 0 60 60">
  <g transform="translate(7.7,0)">
    <path d="M0.89792483,41.5464 3.0517506,41.247257 13.202652,15.022434l3.370338,0 9.971416,26.224823 2.133883,0.299143 0,2.512796 -8.336104,0 0,-2.512796 2.193712,-0.378914 -1.914512,-5.344679 -11.6266707,0 -1.9743403,5.344679 2.1937115,0.378914 0,2.512796 -8.31616067,0 0,-2.512796zm9.31330217,-9.01416 9.213588,0 -4.50708,-12.46427 -0.119657,0 -4.586851,12.46427z"/>
    <path d="m43.702221,21.240609q0,3.033304 -1.464801,4.9 -1.451838,1.853686 -4.005518,1.853686 -1.374061,0 -2.385162,-0.518513 -1.011102,-0.531477 -1.685169,-1.555541l-0.233332,1.801835 -2.203682,0 0,-18.2127899 -2.112943,-0.3629595 0,-1.6462806 4.666622,0 0,7.855481q0.661105,-0.933325 1.633318,-1.425913 0.985176,-0.492587 2.294423,-0.492587 2.592567,0 4.044405,2.074054 1.451839,2.074054 1.451839,5.457355l0,0.27222zm-2.566643,-0.27222q0,-2.424051 -0.881473,-3.940703 -0.881473,-1.516652 -2.69627,-1.516652 -1.179619,0 -1.996278,0.570365 -0.803696,0.570365 -1.283321,1.529615l0,6.196237q0.479625,0.972213 1.296284,1.542578 0.829622,0.570365 2.00924,0.570365 1.801835,0 2.670345,-1.283321 0.881473,-1.283321 0.881473,-3.396264l0,-0.27222z"/>
  </g>
</svg>
