<?xml version="1.0" encoding="UTF-8" standalone="no"?>
<!-- Created with Inkscape (http://www.inkscape.org/) -->

<svg xmlns="http://www.w3.org/2000/svg" viewBox="0 0 60 60">
  <path style="fill:#abc" d="m16.832636,47.152806 -3.324465,0 -0.857591,0c-0.994293,0 -1.800355,-0.805952 -1.800245,-1.800246l0,-16.655313 -10.28588014,-9.700843c-0.7224162,-0.681912 -0.7558251,-1.82015 -0.074648,-2.54326L3.3577007,13.411649c0.6819108,-0.722418 1.8201487,-0.75583 2.5432598,-0.07465L18.065174,24.806832c0.01471,0.01422 0.02918,0.02869 0.0434,0.0434 0.03003,0.03021 0.05898,0.06148 0.0868,0.09374 0.02592,0.03042 0.05082,0.06168 0.07464,0.09374 0.01241,0.01542 0.02457,0.03105 0.03646,0.04687l0.01042,0.01563c0.03039,0.04442 0.05877,0.09018 0.08506,0.137145l0.0087,0.01563c0.0042,0.0086 0.0082,0.01733 0.01215,0.02604 0.13621,0.257921 0.2077,0.54508 0.208321,0.836758l0,-0.09722 0,0.855846 0,12.495825 22.737764,0 0,-12.495825 0,-0.855846 0,0.09722c0,-0.291678 0.07211,-0.578837 0.208321,-0.836758 0.004,-0.0087 0.008,-0.01739 0.01215,-0.02604l0.0087,-0.01563c0.02629,-0.04697 0.05467,-0.09272 0.08506,-0.137145l0.01042,-0.01563c0.01189,-0.01582 0.02405,-0.03145 0.03646,-0.04687 0.02383,-0.03207 0.04873,-0.06333 0.07464,-0.09374 0.02782,-0.03226 0.05677,-0.06353 0.0868,-0.09374 0.01422,-0.01471 0.02869,-0.02918 0.0434,-0.0434L54.099039,13.336995c0.723111,-0.681176 1.861348,-0.647764 2.543259,0.07465l2.867894,3.041495c0.681177,0.72311 0.647768,1.861348 -0.07464,2.54326l-10.28588,9.700843 0,16.655313c0,0.994294 -0.805952,1.800356 -1.800245,1.800246l-0.857591,0 -3.324465,0z"/>
</svg>