<?xml version="1.0" encoding="UTF-8" standalone="no"?>
<!-- Created with Inkscape (http://www.inkscape.org/) -->

<svg xmlns="http://www.w3.org/2000/svg" viewBox="0 0 60 60">
  <path d="m30,56.529156c-35.0081133,0 -35.0081133,0 -17.504057,-30.319035 17.504056,-30.3190356 17.504056,-30.3190356 35.008114,0 17.504056,30.319034 17.504056,30.319034 -17.504057,30.319035z" style="fill:#faa;stroke:#d40000;stroke-width:2px"/>
  <g transform="matrix(1.2034923,0,0,1.2034923,-6.1047686,-6.8056861)" style="stroke:none;stroke-width:1px">
    <path d="m32.421875,37.985458 -4.765625,0 -0.996094,-19.082031 6.757813,0 -0.996094,19.082031zm-5.839844,6.679688q0,-1.640625 0.878906,-2.480469 0.878907,-0.839844 2.558594,-0.839844 1.621094,0 2.5,0.859375 0.898438,0.859375 0.898438,2.460938 0,1.542969 -0.898438,2.441406 -0.898437,0.878906 -2.5,0.878906 -1.640625,0 -2.539062,-0.859375 -0.898438,-0.878906 -0.898438,-2.460937z"/>
  </g>
</svg>
