<svg xmlns="http://www.w3.org/2000/svg" viewBox="0 0 300 300">
	<path style="fill:#00acc1" d="m186.45 200h-15.29l-2.66-13.96q-2.65-1.68-7.75-2.94-5.1-1.25-10.82-1.25-8.38 0-12.99 3.56-4.53 3.49-4.53 9.07 0 5.18 4.74 8.52 4.82 3.28 16.55 6.98 16.83 4.69 25.48 12.36 8.73 7.68 8.73 20.18 0 13.06-10.33 20.6t-27.23 7.54q-12.08 0-21.85-3.84-9.71-3.84-16.2-10.62v-21.22h15.78l2.16 14.45q3.07 2.52 8.31 4.19 5.3 1.61 11.8 1.61 8.38 0 12.71-3.43 4.4-3.41 4.4-9.14 0-5.87-4.2-9.42-4.11-3.56-14.52-6.71-18.08-5.24-27.37-12.43-9.28-7.19-9.28-19.68 0-12.36 10.47-20.18 10.48-7.89 26.32-8.1 11.73 0 21.37 3.56 9.63 3.56 16.2 9.49v20.81z"/>
	<path style="fill:#00acc1" d="m100.67 41.012v-11.672h39.98v11.672l-10.35 1.989v27.859h39.39v-27.859l-10.34-1.989v-11.672h10.34 19.3 10.35v11.672l-10.35 1.989v69.299l10.35 1.98v11.61h-39.99v-11.61l10.34-1.98v-26.52h-39.39v26.52l10.35 1.98v11.61h-39.98v-11.61l10.27-1.98v-69.299l-10.27-1.989z"/>
	<path style="fill:#456" d="m72.562 29.34-26.514 53.02 38.444 76.89h116.76c1.01 0 1.94.57 2.39 1.48l27.85 55.69c.37.76.37 1.64 0 2.4l-25.92 51.82h21.88l26.5-53.02-38.44-76.89h-116.75c-1.01 0-1.95-.57-2.4-1.48l-27.838-55.69c-.38-.76-.38-1.64 0-2.39l25.91-51.83z"/>
</svg>
