<svg version="1" xmlns="http://www.w3.org/2000/svg" width="933.333" height="933.333" viewBox="0 0 700.000000 700.000000"><path d="M87.2 76.4c-21 42-38.2 76.9-38.2 77.5 0 .6 25 51.1 55.5 112.1L160 377H501.7l2 2.2c2.9 3.1 83.3 164.3 83.3 166.9 0 1.2-17.1 36.2-37.9 78l-37.9 75.8h31.7l31.8.1 38.1-76.5c21-42 38.2-76.9 38.2-77.5 0-.5-25-51-55.5-112L540 323H198.3l-2-2.3c-2.9-3.1-83.3-164.2-83.3-166.9 0-1.1 17.1-36.2 37.9-78l38-75.8h-63.5L87.2 76.4z"/><path d="M207 18c0 17.8 0 18 2.3 18.5 4.1.9 26.7 5.5 27.1 5.5.1 0 .3 48.1.3 107 0 76.7-.3 107-1.1 107.1-.6 0-1.8.2-2.6.4-13.9 2.8-22.8 4.7-24.2 5.1-1.6.5-1.8 2.2-1.8 18.3v17.8l57.8-.1 57.7-.1.3-17.7c.2-16.2.1-17.7-1.5-18.2-1-.2-6.5-1.4-12.3-2.6-5.8-1.2-11.2-2.3-12-2.5-.8-.2-2.1-.4-2.7-.4-1-.1-1.3-9-1.3-41.1v-41h114v41c0 22.5-.3 41-.7 41-.7 0-21.6 4.3-27 5.5-2.3.5-2.3.7-2.3 18.4v17.8h116v-17.8c0-17.7 0-17.9-2.2-18.4-8.9-2-13.5-2.9-19.5-4-1.6-.2-4-.7-5.5-1.1l-2.8-.6V148.9c0-58.8.3-106.9.8-107 .4 0 1.4-.2 2.2-.4.8-.2 3.1-.6 5-1 1.9-.3 7.4-1.5 12.2-2.6 4.8-1 9-1.9 9.3-1.9.3 0 .5-8.1.5-18V0H377v18c0 17.8 0 18 2.3 18.5 1.2.2 5.8 1.2 10.2 2.1 4.4.9 9.8 2 12 2.5 2.2.4 4.3.8 4.8.9.4 0 .7 19.3.7 43v43H293V42l2.3-.5c5.2-1.1 26.8-5.5 27.2-5.5.3 0 .5-8.1.5-18V0H207v18zM331 394.6c-5.8.7-12.7 1.8-15.5 2.4-2.7.7-5.4 1.3-6 1.4-5.2 1.2-14.6 4.8-22 8.5-25.3 12.6-43.1 34.1-46.3 56.1-.8 5.9-.9 21.2 0 27.5 2.5 19.4 14.7 36.9 34.8 49.9 16.3 10.6 31.2 17.1 65.5 28.6 24.5 8.3 31.9 11.3 40.2 16.6 10.1 6.5 15.4 13.4 17.7 23.3 5.2 22.5-8.4 40.4-33.9 44.7-9.4 1.5-26.5 1.1-37.9-1-12.5-2.3-29.5-9.5-33.8-14.3-.9-1-1.9-4.7-2.3-8.3-.4-3.6-.8-6.7-1-7-.2-.3-.7-3.1-1-6.3-.4-3.1-1.2-9.2-1.9-13.4l-1.2-7.8-22.6-.1c-19.9-.1-22.7.1-23 1.5-.2.9-.3 14.9-.3 31.1l.1 29.6 5 4.7c6.7 6.2 12.4 10.5 20.9 15.7 15.4 9.4 32.3 15.6 54 19.5 11 2 39.6 2.7 53 1.2 32.3-3.5 60.8-18.7 74.8-40 7.6-11.4 10.8-22.7 11.2-39.4.9-35.2-14.4-58.9-50.7-78.6-9.9-5.4-21.9-10.1-42.7-16.9-40-13-55.4-20.9-62.8-32.3-5.8-8.8-5.3-23.8 1.1-33 5.7-8.3 18.2-15.6 30.1-17.5 7.1-1.2 21.3-1.5 29.5-.6 12 1.3 28 5.5 35.8 9.5 3.4 1.7 4 2.6 4.7 6.3 1 5.6 1.2 6.4 3.5 18.8 1 5.8 2.2 12.2 2.6 14.3l.6 3.7 22.2-.2 22.1-.3.1-30.3.1-30.3-5.1-4.3c-28.9-24.4-77.6-37.8-119.6-33z"/></svg>